<svg width="19" height="16" viewBox="0 0 19 16" fill="none" xmlns="http://www.w3.org/2000/svg">
<path d="M2.54834 5.89503C2.63935 5.88112 2.73272 5.87389 2.82799 5.87389H15.6719C15.7672 5.87389 15.8605 5.88112 15.9515 5.89503M2.54834 5.89503C1.5768 6.0435 0.874829 6.95332 1.01865 7.96008L1.71492 12.834C1.84355 13.7344 2.6147 14.4032 3.52426 14.4032H14.9756C15.8852 14.4032 16.6563 13.7344 16.785 12.834L17.4812 7.96008C17.625 6.95332 16.9231 6.0435 15.9515 5.89503M2.54834 5.89503V2.82771C2.54834 1.81829 3.36663 1 4.37605 1H7.52676C7.84992 1 8.15984 1.12837 8.38835 1.35688L10.1115 3.08006C10.34 3.30857 10.65 3.43695 10.9731 3.43695H14.1238C15.1332 3.43695 15.9515 4.25524 15.9515 5.26466V5.89503" stroke="#78828E" stroke-width="1.5" stroke-linecap="round" stroke-linejoin="round"/>
</svg>
