<svg width="16" height="16" viewBox="0 0 16 16" fill="none" xmlns="http://www.w3.org/2000/svg">
<path fill-rule="evenodd" clip-rule="evenodd" d="M0.927734 3.41341C0.927734 2.12475 1.9724 1.08008 3.26107 1.08008H5.01107C6.29973 1.08008 7.3444 2.12475 7.3444 3.41341V5.16341C7.3444 6.45208 6.29973 7.49674 5.01107 7.49674H3.26107C1.9724 7.49674 0.927734 6.45208 0.927734 5.16341V3.41341ZM8.51107 3.41341C8.51107 2.12475 9.55574 1.08008 10.8444 1.08008H12.5944C13.8831 1.08008 14.9277 2.12475 14.9277 3.41341V5.16341C14.9277 6.45208 13.8831 7.49674 12.5944 7.49674H10.8444C9.55574 7.49674 8.51107 6.45208 8.51107 5.16341V3.41341ZM0.927734 10.9967C0.927734 9.70808 1.9724 8.66341 3.26107 8.66341H5.01107C6.29973 8.66341 7.3444 9.70808 7.3444 10.9967V12.7467C7.3444 14.0354 6.29973 15.0801 5.01107 15.0801H3.26107C1.9724 15.0801 0.927734 14.0354 0.927734 12.7467V10.9967ZM8.51107 10.9967C8.51107 9.70808 9.55574 8.66341 10.8444 8.66341H12.5944C13.8831 8.66341 14.9277 9.70808 14.9277 10.9967V12.7467C14.9277 14.0354 13.8831 15.0801 12.5944 15.0801H10.8444C9.55574 15.0801 8.51107 14.0354 8.51107 12.7467V10.9967Z" stroke="#0B5DA4"/>
</svg>
