<svg width="19" height="14" viewBox="0 0 19 14" fill="none" xmlns="http://www.w3.org/2000/svg">
<path d="M6 1.75H18M6 7H18M6 12.25H18M1.5 1.75H1.5075V1.7575H1.5V1.75ZM1.875 1.75C1.875 1.95711 1.70711 2.125 1.5 2.125C1.29289 2.125 1.125 1.95711 1.125 1.75C1.125 1.54289 1.29289 1.375 1.5 1.375C1.70711 1.375 1.875 1.54289 1.875 1.75ZM1.5 7H1.5075V7.0075H1.5V7ZM1.875 7C1.875 7.20711 1.70711 7.375 1.5 7.375C1.29289 7.375 1.125 7.20711 1.125 7C1.125 6.79289 1.29289 6.625 1.5 6.625C1.70711 6.625 1.875 6.79289 1.875 7ZM1.5 12.25H1.5075V12.2575H1.5V12.25ZM1.875 12.25C1.875 12.4571 1.70711 12.625 1.5 12.625C1.29289 12.625 1.125 12.4571 1.125 12.25C1.125 12.0429 1.29289 11.875 1.5 11.875C1.70711 11.875 1.875 12.0429 1.875 12.25Z" stroke="#0B5DA4" stroke-width="1.5" stroke-linecap="round" stroke-linejoin="round"/>
</svg>
