<svg width="18" height="18" viewBox="0 0 18 18" fill="none" xmlns="http://www.w3.org/2000/svg">
<g clip-path="url(#clip0_1_29531)">
<path d="M2.25009 0C1.65336 0 1.08107 0.237049 0.659122 0.659C0.237171 1.08095 0.00012207 1.65324 0.00012207 2.24997L0.00012207 15.7498C0.00012207 16.3465 0.237171 16.9188 0.659122 17.3407C1.08107 17.7627 1.65336 17.9997 2.25009 17.9997H15.7499C16.3466 17.9997 16.9189 17.7627 17.3408 17.3407C17.7628 16.9188 17.9998 16.3465 17.9998 15.7498V2.24997C17.9998 1.65324 17.7628 1.08095 17.3408 0.659C16.9189 0.237049 16.3466 0 15.7499 0L2.25009 0ZM2.25009 1.12498H15.7499C16.0482 1.12498 16.3344 1.24351 16.5454 1.45448C16.7563 1.66546 16.8749 1.9516 16.8749 2.24997V15.7498C16.8749 16.0481 16.7563 16.3343 16.5454 16.5452C16.3344 16.7562 16.0482 16.8747 15.7499 16.8747H2.25009C1.95172 16.8747 1.66558 16.7562 1.4546 16.5452C1.24363 16.3343 1.1251 16.0481 1.1251 15.7498V2.24997C1.1251 1.9516 1.24363 1.66546 1.4546 1.45448C1.66558 1.24351 1.95172 1.12498 2.25009 1.12498Z" fill="#78828E"/>
<path d="M10.7901 6.85792L10.5636 7.08455L10.5636 -1.90317C10.5636 -2.39216 10.3694 -2.86112 10.0236 -3.20689C9.67783 -3.55266 9.20886 -3.7469 8.71988 -3.7469C8.23091 -3.7469 7.76194 -3.55266 7.41617 -3.20688C7.0704 -2.86112 6.87615 -2.39216 6.87615 -1.90317L6.87615 7.08455L6.64972 6.85792L6.64941 6.85761C6.30344 6.51165 5.83421 6.31729 5.34494 6.31729C4.85567 6.31729 4.38643 6.51165 4.04047 6.85761C3.6945 7.20358 3.50014 7.67281 3.50014 8.16209C3.50014 8.65136 3.6945 9.12059 4.04047 9.46656L4.74757 8.75945L4.04047 9.46656L7.41452 12.8406C7.41466 12.8407 7.4148 12.8409 7.41494 12.841C7.58612 13.0125 7.78943 13.1486 8.01324 13.2415C8.23724 13.3344 8.47738 13.3823 8.71989 13.3823C8.9624 13.3823 9.20253 13.3344 9.42653 13.2415C9.65033 13.1486 9.85362 13.0125 10.0248 12.841C10.0249 12.8409 10.0251 12.8407 10.0252 12.8406L13.3993 9.46656L12.6922 8.75945L13.3993 9.46656C13.7453 9.12059 13.9396 8.65136 13.9396 8.16208C13.9396 7.67281 13.7453 7.20358 13.3993 6.85761C13.0533 6.51165 12.5841 6.31729 12.0948 6.31729C11.6056 6.31729 11.1363 6.51165 10.7904 6.85761L10.7901 6.85792Z" fill="#78828E" stroke="white" stroke-width="2"/>
</g>
<defs>
<clipPath id="clip0_1_29531">
<rect width="17.9997" height="17.9999" fill="white"/>
</clipPath>
</defs>
</svg>
