<svg width="18" height="18" viewBox="0 0 18 18" fill="none" xmlns="http://www.w3.org/2000/svg">
<g clip-path="url(#clip0_1_30666)">
<path d="M2.25009 0C1.65336 0 1.08107 0.237049 0.659122 0.659C0.237171 1.08095 0.00012207 1.65324 0.00012207 2.24997L0.00012207 15.7498C0.00012207 16.3465 0.237171 16.9188 0.659122 17.3407C1.08107 17.7627 1.65336 17.9997 2.25009 17.9997H15.7499C16.3466 17.9997 16.9189 17.7627 17.3408 17.3407C17.7628 16.9188 17.9998 16.3465 17.9998 15.7498V2.24997C17.9998 1.65324 17.7628 1.08095 17.3408 0.659C16.9189 0.237049 16.3466 0 15.7499 0L2.25009 0ZM2.25009 1.12498H15.7499C16.0482 1.12498 16.3344 1.24351 16.5454 1.45448C16.7563 1.66546 16.8749 1.9516 16.8749 2.24997V15.7498C16.8749 16.0481 16.7563 16.3343 16.5454 16.5452C16.3344 16.7562 16.0482 16.8747 15.7499 16.8747H2.25009C1.95172 16.8747 1.66558 16.7562 1.4546 16.5452C1.24363 16.3343 1.1251 16.0481 1.1251 15.7498V2.24997C1.1251 1.9516 1.24363 1.66546 1.4546 1.45448C1.66558 1.24351 1.95172 1.12498 2.25009 1.12498Z" fill="#0B5DA4"/>
<path d="M10.79 6.85743L10.5636 7.08406L10.5636 -1.90366C10.5636 -2.39265 10.3693 -2.86161 10.0235 -3.20737C9.67777 -3.55315 9.2088 -3.74739 8.71982 -3.74739C8.23085 -3.74739 7.76188 -3.55315 7.41611 -3.20737C7.07034 -2.86161 6.87609 -2.39265 6.87609 -1.90366L6.87609 7.08406L6.64966 6.85743L6.64935 6.85713C6.30338 6.51116 5.83414 6.3168 5.34488 6.3168C4.85561 6.3168 4.38637 6.51116 4.04041 6.85713C3.69444 7.20309 3.50007 7.67233 3.50007 8.1616C3.50007 8.65087 3.69444 9.1201 4.04041 9.46607L4.74751 8.75896L4.04041 9.46607L7.41446 12.8401C7.4146 12.8402 7.41474 12.8404 7.41488 12.8405C7.58606 13.012 7.78937 13.1481 8.01318 13.241C8.23718 13.3339 8.47731 13.3818 8.71982 13.3818C8.96233 13.3818 9.20247 13.3339 9.42647 13.241C9.65027 13.1481 9.85356 13.012 10.0247 12.8406C10.0249 12.8404 10.025 12.8403 10.0252 12.8401L13.3992 9.46607L12.6921 8.75896L13.3992 9.46607C13.7452 9.1201 13.9396 8.65087 13.9396 8.1616C13.9396 7.67232 13.7452 7.20309 13.3992 6.85712C13.0533 6.51116 12.584 6.3168 12.0948 6.3168C11.6055 6.3168 11.1363 6.51116 10.7903 6.85712L10.79 6.85743Z" fill="#0B5DA4" stroke="white" stroke-width="2"/>
</g>
<defs>
<clipPath id="clip0_1_30666">
<rect width="17.9997" height="17.9999" fill="white"/>
</clipPath>
</defs>
</svg>
