<svg width="18" height="18" viewBox="0 0 18 18" fill="none" xmlns="http://www.w3.org/2000/svg">
<path d="M5.0625 13.875C4.91332 13.875 4.77024 13.8157 4.66475 13.7102C4.55926 13.6048 4.5 13.4617 4.5 13.3125V11.0625C4.5 10.9133 4.55926 10.7702 4.66475 10.6648C4.77024 10.5593 4.91332 10.5 5.0625 10.5H6.1875C6.33668 10.5 6.47976 10.5593 6.58525 10.6648C6.69074 10.7702 6.75 10.9133 6.75 11.0625V13.3125C6.75 13.4617 6.69074 13.6048 6.58525 13.7102C6.47976 13.8157 6.33668 13.875 6.1875 13.875H5.0625ZM8.4375 13.875C8.28832 13.875 8.14524 13.8157 8.03975 13.7102C7.93426 13.6048 7.875 13.4617 7.875 13.3125V8.8125C7.875 8.66332 7.93426 8.52024 8.03975 8.41475C8.14524 8.30926 8.28832 8.25 8.4375 8.25H9.5625C9.71168 8.25 9.85476 8.30926 9.96025 8.41475C10.0657 8.52024 10.125 8.66332 10.125 8.8125V13.3125C10.125 13.4617 10.0657 13.6048 9.96025 13.7102C9.85476 13.8157 9.71168 13.875 9.5625 13.875H8.4375ZM11.8125 13.875C11.6633 13.875 11.5202 13.8157 11.4148 13.7102C11.3093 13.6048 11.25 13.4617 11.25 13.3125V6.5625C11.25 6.41332 11.3093 6.27024 11.4148 6.16475C11.5202 6.05926 11.6633 6 11.8125 6H12.9375C13.0867 6 13.2298 6.05926 13.3352 6.16475C13.4407 6.27024 13.5 6.41332 13.5 6.5625V13.3125C13.5 13.4617 13.4407 13.6048 13.3352 13.7102C13.2298 13.8157 13.0867 13.875 12.9375 13.875H11.8125Z" fill="#78828E"/>
<path d="M2.25 0C1.65326 0 1.08097 0.237053 0.65901 0.65901C0.237053 1.08097 0 1.65326 0 2.25L0 15.75C0 16.3467 0.237053 16.919 0.65901 17.341C1.08097 17.7629 1.65326 18 2.25 18H15.75C16.3467 18 16.919 17.7629 17.341 17.341C17.7629 16.919 18 16.3467 18 15.75V2.25C18 1.65326 17.7629 1.08097 17.341 0.65901C16.919 0.237053 16.3467 0 15.75 0L2.25 0ZM2.25 1.125H15.75C16.0484 1.125 16.3345 1.24353 16.5455 1.4545C16.7565 1.66548 16.875 1.95163 16.875 2.25V15.75C16.875 16.0484 16.7565 16.3345 16.5455 16.5455C16.3345 16.7565 16.0484 16.875 15.75 16.875H2.25C1.95163 16.875 1.66548 16.7565 1.4545 16.5455C1.24353 16.3345 1.125 16.0484 1.125 15.75V2.25C1.125 1.95163 1.24353 1.66548 1.4545 1.4545C1.66548 1.24353 1.95163 1.125 2.25 1.125Z" fill="#78828E"/>
</svg>
